<svg width="54" height="54" viewBox="0 0 54 54" fill="none" xmlns="http://www.w3.org/2000/svg">
<path d="M25.1047 30.4438C25.5918 30.5385 25.6794 30.3001 25.7589 30.131C25.8373 29.9608 26.0706 29.701 26.4109 29.5401C26.7523 29.3781 27.2097 29.105 27.388 28.942C27.5684 28.779 27.7609 28.5762 28.1705 28.5599C28.5811 28.5426 28.7849 28.3429 28.9133 28.079C29.0447 27.8151 28.953 27.2608 29.0427 27.0642C29.1323 26.8696 29.3595 26.5242 29.493 26.2196C29.6285 25.9159 29.5113 25.9414 29.3106 26.029C29.1099 26.1146 28.9347 26.1849 28.8572 26.4549C28.7778 26.7259 28.7054 26.7881 28.4527 26.9725C28.198 27.1559 28.0136 27.2873 27.7416 27.375C27.4665 27.4616 26.9336 27.6287 26.633 27.7754C26.3529 27.9119 26.0564 28.0749 25.7324 28.2685L23.6641 30.3368C24.0502 30.2971 24.6697 30.3592 25.1047 30.4438Z" fill="#3FA9F5"/>
<path d="M47.5585 9.5061C47.4587 9.58761 47.3853 9.66199 47.369 9.71497C47.316 9.90244 47.2875 10.7175 47.097 11.067C46.9105 11.4165 46.8463 12.0879 46.8443 12.2132C46.8392 12.3375 46.8239 12.5576 46.6976 12.7634C46.5743 12.9682 46.3216 13.2667 46.4133 13.4186C46.504 13.5704 46.8677 13.8424 46.6762 14.038C46.4836 14.2337 46.017 14.5169 46.1514 14.8063C46.291 15.0966 46.5091 15.6275 46.4989 15.8445C46.4887 16.0615 46.3573 16.2724 46.4928 16.4171C46.6293 16.5618 46.7434 16.8583 46.5447 17.1741C46.346 17.491 45.373 18.8603 44.775 19.3606C44.1789 19.8619 43.6277 20.4253 43.4576 20.7493C43.2874 21.0733 43.268 21.3209 43.1825 21.434C43.0979 21.5471 42.8513 21.7213 42.674 21.8915C42.4988 22.0616 42.6363 22.1645 42.728 22.3153C42.8197 22.4671 42.7433 22.7066 42.5987 22.8533C42.453 23 42.0627 23.2099 42.3052 23.3678C42.5467 23.5267 42.6078 23.7978 42.4927 23.921C42.3786 24.0443 42.1259 24.3775 42.1096 24.5008C42.0913 24.6241 41.5288 24.6281 41.2609 24.4458C40.995 24.2634 40.5548 23.973 40.6496 23.8823C40.7443 23.7916 40.995 23.6592 41.2201 23.378C41.4473 23.0968 41.4198 22.6964 41.5482 22.6515C41.6817 22.6077 41.7153 22.3622 41.4871 22.2053C41.2568 22.0484 41.1753 21.8915 41.3974 21.6306C41.6216 21.3698 41.8803 20.8644 41.4932 20.6444C41.106 20.4243 40.674 20.5313 40.1748 20.6912C39.6735 20.8522 39.7591 20.9684 39.1162 21.5664C38.4702 22.1645 38.7371 22.4936 38.3439 22.9195C37.9526 23.3444 37.9862 23.5573 37.594 23.9822C37.2037 24.4081 36.6087 24.784 36.4182 25.1121C36.2267 25.4402 36.4457 25.5115 36.8563 25.2558C37.2679 25.001 37.0805 24.9949 37.6928 24.9328C38.3072 24.8717 38.3113 24.9766 38.7331 24.784C39.1579 24.5925 39.3851 24.457 39.5665 24.6485C39.7489 24.8411 40.0657 25.2598 40.2064 25.592C40.349 25.9241 40.3877 26.3877 40.2716 26.9349C40.1534 27.481 40.2237 27.7408 39.9068 28.0729C39.5889 28.403 39.1498 28.5722 38.727 28.7647C38.3041 28.9563 38.4417 28.8707 38.0372 29.0857C37.6327 29.3017 37.5491 29.1438 37.3596 28.8677C37.1681 28.5915 36.5894 28.6985 36.3306 28.9135C36.0738 29.1285 35.1945 30.0699 34.8991 30.237C34.6056 30.4051 33.7987 30.6486 33.5328 30.9237C33.2658 31.1998 33.2128 31.4433 33.3952 31.6135C33.5807 31.7857 33.7671 32.395 33.2984 32.6212C32.8297 32.8473 32.5557 33.0195 32.4283 33.3344C32.303 33.6512 31.7161 33.9875 31.3605 34.125C31.008 34.2646 30.2225 34.5305 29.9402 34.9095C29.66 35.2875 29.4461 35.6115 29.115 35.7532C28.7838 35.8968 28.1888 36.2728 27.8291 36.3064C27.4695 36.34 27.1832 35.8428 26.3956 35.9844C25.605 36.1261 24.7858 36.3247 24.5993 36.4664C24.4108 36.607 24.206 36.8902 23.9799 37.0278C23.7516 37.1623 23.556 37.3864 22.9151 37.4832C22.2783 37.5841 22.0858 37.6207 21.6772 37.8551C21.2707 38.0904 20.9141 38.3961 20.5636 38.5357C20.209 38.6743 19.8249 38.5999 19.6537 39.0767C19.4846 39.5535 19.4021 40.1465 19.0801 40.3717C18.7571 40.5989 18.6899 40.7762 18.4117 40.821C18.1366 40.8679 18.0735 39.8164 17.3919 39.9305C16.7072 40.0446 16.482 40.1598 16.267 40.0681C16.05 39.9754 15.9522 39.9193 15.6333 39.9804C15.3123 40.0406 14.6032 39.9 14.3791 40.3075C14.157 40.714 13.8798 40.7589 13.6485 41.3936C13.4122 42.0284 13.3785 42.1282 13.7127 42.277C14.0469 42.4278 14.0276 42.5714 13.8421 42.7131C13.6536 42.8537 13.1951 43.1451 13.0668 43.4813C12.9374 43.8175 12.9088 44.0223 12.7265 44.2882C12.5441 44.5541 12.159 44.9189 12.3332 45.0259C12.5074 45.1329 12.7 45.3886 12.5013 45.467C12.3047 45.5435 11.889 45.6739 11.5751 46.1517C11.2573 46.6296 10.5705 47.2429 10.27 47.5975C10.164 47.7228 10.0591 47.8288 9.94189 47.9246C14.591 51.7219 20.5279 54.0001 26.9998 54.0001C41.9119 54.0001 53.9998 41.9122 53.9998 27.0001C53.9998 20.3244 51.5718 14.2194 47.5585 9.5061Z" fill="#3FA9F5"/>
<path d="M24.5885 28.6302C24.2889 28.5884 24.0281 28.8228 23.9099 28.9318C23.7897 29.0398 23.7163 28.9675 23.4779 28.8931C23.2374 28.8187 22.9919 29.0775 22.9247 29.2752C22.8554 29.4738 22.5039 29.4463 22.3724 29.3444C22.241 29.2426 21.8885 29.3821 21.6806 29.5217C21.4738 29.6593 21.2873 29.862 21.0693 30.0831C20.8513 30.3022 21.3281 30.5151 21.486 30.6822C21.6368 30.8412 21.8793 30.7637 22.026 30.7006C22.1737 30.6374 22.4753 30.5549 22.6669 30.4835C22.8574 30.4132 23.16 30.4275 23.5176 30.3511C23.5564 30.3429 23.6154 30.3419 23.6623 30.3378L25.7306 28.2695C25.7072 28.2838 25.6858 28.295 25.6624 28.3093C25.3098 28.5202 24.8839 28.6699 24.5885 28.6302Z" fill="#70CF29"/>
<path d="M6.18351 43.1307C7.2034 42.7986 8.10408 41.7012 8.46374 41.1113C8.82136 40.5224 9.73324 39.3426 10.3099 38.5876C10.8866 37.8336 12.3772 36.9003 13.6294 36.4877C14.8795 36.0771 16.2876 35.5483 17.008 34.7587C17.7263 33.9691 17.6763 33.7398 18.1491 33.5269C18.6218 33.3149 19.2403 33.0674 19.388 32.8086C19.5337 32.5518 19.5409 31.6909 20.2673 31.4575C20.9938 31.2242 20.9673 31.214 21.0315 30.9104C21.0946 30.6068 20.6688 30.3806 20.4405 30.349C20.2164 30.3185 19.5704 30.4794 19.6601 30.2624C19.7528 30.0464 20.1858 29.4799 20.7431 29.2242C21.2994 28.9674 21.9648 28.5171 22.1298 28.2267C22.2949 27.9374 22.7554 27.4595 23.3117 27.2028C23.87 26.947 24.6362 26.5099 25.0122 26.354C25.3882 26.1971 26.3398 25.8069 26.5425 25.6897C26.7473 25.5715 27.5074 25.3433 27.5441 24.9317C27.5777 24.5201 27.2517 24.4752 27.6286 24.0066C28.0046 23.5369 28.2298 23.4217 28.564 22.8216C28.8951 22.2225 28.9939 22.1094 29.4657 21.8629C29.9374 21.6163 31.0999 20.9011 31.2456 20.9C31.3913 20.899 31.7286 20.8837 31.9935 20.4609C32.2584 20.0381 32.5865 20.0839 32.8473 20.0157C33.1061 19.9474 33.4902 19.2709 33.8183 19.169C34.1433 19.0681 34.2625 18.6677 34.3022 18.3824C34.342 18.0971 34.4938 17.4502 34.8168 17.3697C35.1397 17.2892 35.3557 16.7767 35.4362 16.4975C35.5157 16.2163 35.6206 15.4593 36.0119 15.3482C36.4021 15.2341 36.2666 15.2993 36.4948 15.0181C36.72 14.7359 36.9115 14.2621 37.262 13.9778C37.6166 13.6936 37.7817 13.5489 37.8774 13.1454C37.9763 12.742 38.2493 11.5091 38.7628 10.8092C39.2763 10.1092 39.7858 9.74242 40.3533 9.25743C40.9198 8.77245 40.9361 8.1917 41.257 7.84019C41.5769 7.48766 41.3569 7.26962 41.5555 7.04649C41.7502 6.82336 41.7766 6.63996 41.8133 6.51974C41.851 6.39849 41.6768 6.16721 41.9193 5.90842C42.1618 5.65064 42.3696 5.65879 42.5887 5.43872C42.7354 5.292 42.7038 5.1677 42.7028 5.04543C38.2789 1.87268 32.8605 0 27 0C12.0878 0 0 12.0878 0 27C0 33.1692 2.0734 38.8515 5.55487 43.3977C5.75762 43.2958 5.96751 43.2 6.18351 43.1307Z" fill="#70CF29"/>
</svg>
