<svg width="86" height="86" viewBox="0 0 86 86" fill="none" xmlns="http://www.w3.org/2000/svg">
<path d="M70.36 11.148C63.01 4.829 53.455 1 43 1C19.804 1 1 19.804 1 43C1 53.455 4.828 63.009 11.148 70.36" stroke="#70CF29" stroke-miterlimit="10"/>
<path d="M15.373 74.621C22.759 81.078 32.418 85 43 85C66.196 85 85 66.196 85 43C85 32.419 81.078 22.759 74.621 15.374" stroke="#3FA9F5" stroke-miterlimit="10"/>
<path d="M51.9442 40.1651C56.8562 40.1651 60.8512 36.1691 60.8512 31.2581C60.8512 26.3471 56.8552 22.3501 51.9442 22.3501C47.0312 22.3501 43.0352 26.3461 43.0352 31.2581C43.0352 36.1701 47.0322 40.1651 51.9442 40.1651ZM51.9442 24.3501C55.7532 24.3501 58.8512 27.4491 58.8512 31.2581C58.8512 35.0671 55.7522 38.1651 51.9442 38.1651C48.1342 38.1651 45.0352 35.0661 45.0352 31.2581C45.0352 27.4491 48.1352 24.3501 51.9442 24.3501Z" fill="#3FA9F5"/>
<path d="M52.001 43.7661C43.6 43.7661 37 50.6001 37 59.0001V60.0001H67V59.0001C67 50.6001 60.401 43.7661 52.001 43.7661ZM38.747 58.0001C39.26 51.1671 44.983 45.7661 51.945 45.7661C58.905 45.7661 64.629 51.1681 65.141 58.0001H38.747Z" fill="#3FA9F5"/>
<path d="M30.3029 44.1031C34.316 44.1031 37.5809 40.8381 37.5809 36.8241C37.5809 32.8111 34.316 29.5461 30.3029 29.5461C26.2889 29.5461 23.0229 32.8111 23.0229 36.8241C23.0219 40.8381 26.2889 44.1031 30.3029 44.1031ZM30.3029 31.5461C33.214 31.5461 35.5809 33.9141 35.5809 36.8241C35.5809 39.7351 33.2129 42.1031 30.3029 42.1031C27.391 42.1031 25.0229 39.7351 25.0229 36.8241C25.0219 33.9141 27.391 31.5461 30.3029 31.5461Z" fill="#3FA9F5"/>
<path d="M18 59.0001V60.0001H33V58.0001H20.044C20.521 52.6081 24.829 48.5181 30.242 48.5181C32.287 48.5181 33.977 48.9291 35.409 49.7731L36.426 48.0501C34.678 47.0191 32.655 46.5181 30.243 46.5181C23.377 46.5181 18 52.0011 18 59.0001Z" fill="#3FA9F5"/>
</svg>
