<svg width="86" height="86" viewBox="0 0 86 86" fill="none" xmlns="http://www.w3.org/2000/svg">
<path d="M70.36 11.148C63.01 4.829 53.455 1 43 1C19.804 1 1 19.804 1 43C1 53.455 4.82801 63.009 11.148 70.36" stroke="#70CF29" stroke-miterlimit="10"/>
<path d="M15.373 74.621C22.759 81.078 32.4181 85 43.0001 85C66.1961 85 85.0001 66.196 85.0001 43C85.0001 32.419 81.0781 22.759 74.6211 15.374" stroke="#3FA9F5" stroke-miterlimit="10"/>
<path d="M44.0002 38H55.9802L64.7432 30.225L55.9592 23H44.0002V20H42.0002V23H25.0002V38H42.0002V43H31.8602L23.0962 50.755L31.8802 58H42.0002V65H32.0002V67H55.0002V65H44.0002V58H62.0002V43H44.0002V38ZM27.0002 25H55.2422L61.6652 30.282L55.2212 36H27.0002V25ZM60.0002 45V56H44.0002H42.0002H32.5992L26.1752 50.701L32.6182 45H60.0002Z" fill="#3FA9F5"/>
</svg>
