<svg width="86" height="86" viewBox="0 0 86 86" fill="none" xmlns="http://www.w3.org/2000/svg">
<path d="M70.36 11.148C63.01 4.829 53.455 1 43 1C19.804 1 1 19.804 1 43C1 53.455 4.82801 63.009 11.148 70.36" stroke="#70CF29" stroke-miterlimit="10"/>
<path d="M15.373 74.621C22.759 81.078 32.4181 85 43.0001 85C66.1961 85 85.0001 66.196 85.0001 43C85.0001 32.419 81.078 22.759 74.621 15.374" stroke="#3FA9F5" stroke-miterlimit="10"/>
<path d="M62.471 24H24.53C22.117 24 20.001 26.309 20.001 28.941V53.647C20.001 56.088 21.99 58 24.53 58H27V68.282L38.155 58H62.47C65.01 58 66.999 56.088 66.999 53.647V28.941C67 26.309 64.884 24 62.471 24ZM65 53.647C65 54.988 63.913 56 62.471 56H37.374L29 63.718V56H24.529C23.087 56 22 54.988 22 53.647V28.941C22 27.457 23.253 26 24.529 26H62.47C63.746 26 64.999 27.457 64.999 28.941V53.647H65Z" fill="#3FA9F5"/>
<path d="M42.9002 30.377C36.9092 30.377 32.0352 35.2339 32.0352 41.2039C32.0352 47.1739 36.9092 52.031 42.9002 52.031C48.8902 52.031 53.7632 47.1739 53.7632 41.2039C53.7632 35.2339 48.8912 30.377 42.9002 30.377ZM51.6712 40H47.5192C47.3972 37.336 46.8812 34.7569 45.9922 32.9409C48.9922 34.0589 51.2232 36.747 51.6712 40ZM42.9002 49.8829C42.0572 49.8829 40.4532 47.104 40.2692 42H45.5292C45.3462 47.106 43.7412 49.8829 42.9002 49.8829ZM40.2802 40C40.5112 35.068 42.0732 32.392 42.9002 32.392C43.7262 32.392 45.2902 35.07 45.5182 40H40.2802ZM39.8102 32.9409C38.9202 34.7559 38.4042 37.335 38.2812 40H34.1292C34.5762 36.747 36.8082 34.0589 39.8102 32.9409ZM34.0752 42H38.2692C38.3702 44.845 38.9212 47.6149 39.8962 49.4989C36.7252 48.3549 34.3892 45.468 34.0752 42ZM45.9032 49.4989C46.8772 47.6169 47.4272 44.846 47.5292 42H51.7232C51.4102 45.468 49.0752 48.3559 45.9032 49.4989Z" fill="#3FA9F5"/>
</svg>
