<svg width="86" height="86" viewBox="0 0 86 86" fill="none" xmlns="http://www.w3.org/2000/svg">
<path d="M70.36 11.148C63.01 4.829 53.455 1 43 1C19.803 1 1 19.804 1 43C1 53.455 4.82801 63.009 11.148 70.36" stroke="#70CF29" stroke-miterlimit="10"/>
<path d="M15.373 74.621C22.759 81.078 32.4181 85 43.0001 85C66.1961 85 85.0001 66.196 85.0001 43C85.0001 32.419 81.078 22.759 74.621 15.374" stroke="#3FA9F5" stroke-miterlimit="10"/>
<path d="M65.4141 41L60.4141 36H57.4141L52.4141 31H36.0001V20H30.0001V31H24.0001V36H21.0001V41H15.6631L21.2521 60H63.67L71.493 41H65.4141ZM32.0001 22H34.0001V31H32.0001V22ZM26.0001 33H51.5861L54.5861 36H26.0001V33ZM23.0001 38H59.5861L62.5861 41H23.0001V38ZM62.3301 58H22.748L18.337 43H68.5071L62.3301 58Z" fill="#3FA9F5"/>
<path d="M30 46.5C27.794 46.5 26 48.294 26 50.5C26 52.706 27.794 54.5 30 54.5C32.206 54.5 34 52.706 34 50.5C34 48.294 32.206 46.5 30 46.5ZM30 52.5C28.897 52.5 28 51.603 28 50.5C28 49.397 28.897 48.5 30 48.5C31.103 48.5 32 49.397 32 50.5C32 51.603 31.103 52.5 30 52.5Z" fill="#3FA9F5"/>
<path d="M43 46.5C40.794 46.5 39 48.294 39 50.5C39 52.706 40.794 54.5 43 54.5C45.206 54.5 47 52.706 47 50.5C47 48.294 45.206 46.5 43 46.5ZM43 52.5C41.897 52.5 41 51.603 41 50.5C41 49.397 41.897 48.5 43 48.5C44.103 48.5 45 49.397 45 50.5C45 51.603 44.103 52.5 43 52.5Z" fill="#3FA9F5"/>
<path d="M56 46.5C53.794 46.5 52 48.294 52 50.5C52 52.706 53.794 54.5 56 54.5C58.206 54.5 60 52.706 60 50.5C60 48.294 58.206 46.5 56 46.5ZM56 52.5C54.897 52.5 54 51.603 54 50.5C54 49.397 54.897 48.5 56 48.5C57.103 48.5 58 49.397 58 50.5C58 51.603 57.103 52.5 56 52.5Z" fill="#3FA9F5"/>
</svg>
