<svg width="86" height="86" viewBox="0 0 86 86" fill="none" xmlns="http://www.w3.org/2000/svg">
<path d="M70.36 11.148C63.01 4.82801 53.455 1 43 1C19.804 1 1 19.805 1 43C1 53.455 4.828 63.01 11.148 70.36" stroke="#70CF29" stroke-miterlimit="10"/>
<path d="M15.373 74.6211C22.759 81.0781 32.418 85.0001 43 85.0001C66.196 85.0001 85 66.1951 85 43.0001C85 32.4191 81.078 22.759 74.621 15.373" stroke="#3FA9F5" stroke-miterlimit="10"/>
<path d="M52.789 43.263C53.851 44.077 55.055 45 57 45C58.724 45 59.925 44.117 60.985 43.338C61.962 42.62 62.806 42 64 42C65.167 42 65.97 42.603 66.9 43.3C67.963 44.097 69.167 45 71 45V43C69.833 43 69.03 42.397 68.1 41.7C67.037 40.903 65.833 40 64 40C62.15 40 60.902 40.917 59.801 41.727C58.871 42.41 58.068 43 57 43C55.733 43 54.933 42.387 54.005 41.676C53.183 41.046 52.266 40.357 51 40.105V33.899C53.279 33.435 55 31.415 55 29.001C55 26.244 52.757 24.001 50 24.001C47.243 24.001 45 26.244 45 29.001C45 31.415 46.721 33.436 49 33.899V40.105C47.708 40.358 46.755 41.059 45.9 41.701C44.97 42.398 44.167 43.001 43 43.001C41.833 43.001 41.03 42.398 40.1 41.701C39.037 40.904 37.833 40.001 36 40.001C34.167 40.001 32.961 40.904 31.899 41.701C30.969 42.398 30.164 43.001 28.998 43.001C27.824 43.001 27.007 42.394 26.064 41.69C25.001 40.898 23.793 40.001 21.989 40.001C20.118 40.001 18.902 40.915 17.839 41.722C16.934 42.407 16 43 15 43V45C17 45 18.006 44.104 19.048 43.313C19.977 42.608 20.802 42 22 42C23.14 42 23.943 42.6 24.874 43.293C25.946 44.093 27.163 45 29 45C30.833 45 32.038 44.097 33.1 43.3C34.03 42.603 34.833 42 36 42C37.167 42 37.97 42.603 38.9 43.3C39.963 44.097 41.167 45 43 45C44.833 45 46.038 44.097 47.1 43.3C47.738 42.821 48.323 42.404 49 42.178V47.105C47.708 47.358 46.755 48.059 45.9 48.701C44.97 49.398 44.167 50.001 43 50.001C41.833 50.001 41.03 49.398 40.1 48.701C39.037 47.904 37.833 47.001 36 47.001C34.167 47.001 32.961 47.904 31.899 48.701C30.969 49.398 30.164 50.001 28.998 50.001C27.824 50.001 27.007 49.394 26.064 48.69C25.001 47.898 23.793 47.001 21.989 47.001C20.118 47.001 18.902 47.915 17.839 48.722C16.934 49.407 16 50 15 50V52C17 52 18.006 51.104 19.048 50.313C19.977 49.608 20.802 49 22 49C23.14 49 23.943 49.6 24.874 50.293C25.946 51.093 27.163 52 29 52C30.833 52 32.038 51.097 33.1 50.3C34.03 49.603 34.833 49 36 49C37.167 49 37.97 49.603 38.9 50.3C39.963 51.097 41.167 52 43 52C44.833 52 46.038 51.097 47.1 50.3C47.738 49.821 48.323 49.404 49 49.178V62C49 65.859 45.86 69 42 69C38.14 69 35 65.859 35 62V59.414L39.293 63.707L40.707 62.293L33 54.586V62C33 66.963 37.038 71 42 71C46.962 71 51 66.963 51 62V49.181C51.629 49.397 52.169 49.788 52.789 50.263C53.851 51.077 55.055 52 57 52C58.724 52 59.925 51.117 60.985 50.338C61.962 49.62 62.806 49 64 49C65.167 49 65.97 49.603 66.9 50.3C67.963 51.097 69.167 52 71 52V50C69.833 50 69.03 49.397 68.1 48.7C67.037 47.903 65.833 47 64 47C62.15 47 60.902 47.917 59.801 48.727C58.871 49.41 58.068 50 57 50C55.733 50 54.933 49.387 54.005 48.676C53.183 48.046 52.266 47.357 51 47.105V42.181C51.629 42.396 52.169 42.788 52.789 43.263ZM47 29C47 27.346 48.346 26 50 26C51.654 26 53 27.346 53 29C53 30.654 51.654 32 50 32C48.346 32 47 30.654 47 29Z" fill="#3FA9F5"/>
<path d="M51 16H49V24H50H51V16Z" fill="#3FA9F5"/>
</svg>
