<svg width="86" height="86" viewBox="0 0 86 86" fill="none" xmlns="http://www.w3.org/2000/svg">
<path d="M70.36 11.148C63.01 4.82801 53.455 1 43 1C19.804 1 1 19.805 1 43C1 53.455 4.82801 63.01 11.148 70.36" stroke="#70CF29" stroke-miterlimit="10"/>
<path d="M15.373 74.6211C22.759 81.0781 32.4181 85.0001 43.0001 85.0001C66.1961 85.0001 85.0001 66.1951 85.0001 43.0001C85.0001 32.4191 81.0781 22.759 74.6211 15.373" stroke="#3FA9F5" stroke-miterlimit="10"/>
<path d="M64 27C64 23.141 60.86 20 57 20H28C24.14 20 21 23.141 21 27V61H27V65H29V61H56V65H58V61H64V27ZM48.41 44C47.931 41.167 45.468 39 42.5 39C39.532 39 37.069 41.167 36.59 44H23V28H62V44H48.41ZM46.358 44H38.642C39.089 42.279 40.642 41 42.5 41C44.358 41 45.911 42.279 46.358 44ZM28 22H57C59.415 22 61.434 23.721 61.899 26H23.101C23.566 23.721 25.585 22 28 22ZM23 59V46H62V59H23Z" fill="#3FA9F5"/>
<path d="M30.5 48C28.019 48 26 50.019 26 52.5C26 54.981 28.019 57 30.5 57C32.981 57 35 54.981 35 52.5C35 50.019 32.981 48 30.5 48ZM30.5 55C29.122 55 28 53.879 28 52.5C28 51.121 29.122 50 30.5 50C31.878 50 33 51.121 33 52.5C33 53.879 31.878 55 30.5 55Z" fill="#3FA9F5"/>
<path d="M54.5 48C52.019 48 50 50.019 50 52.5C50 54.981 52.019 57 54.5 57C56.981 57 59 54.981 59 52.5C59 50.019 56.981 48 54.5 48ZM54.5 55C53.122 55 52 53.879 52 52.5C52 51.121 53.122 50 54.5 50C55.878 50 57 51.121 57 52.5C57 53.879 55.878 55 54.5 55Z" fill="#3FA9F5"/>
</svg>
