<svg width="86" height="86" viewBox="0 0 86 86" fill="none" xmlns="http://www.w3.org/2000/svg">
<path d="M60 31H51V29C51 26.243 48.757 24 46 24H40C37.243 24 35 26.243 35 29V31H26C23.243 31 21 33.243 21 36V55C21 57.757 23.243 60 26 60H60C62.757 60 65 57.757 65 55V36C65 33.243 62.757 31 60 31ZM37 29C37 27.346 38.346 26 40 26H46C47.654 26 49 27.346 49 29V31H37V29ZM63 55C63 56.654 61.654 58 60 58H26C24.346 58 23 56.654 23 55V36C23 34.346 24.346 33 26 33H60C61.654 33 63 34.346 63 36V55Z" fill="#3FA9F5"/>
<path d="M70.36 11.148C63.01 4.82801 53.455 1 43 1C19.804 1 1 19.805 1 43C1 53.455 4.82801 63.01 11.148 70.36" stroke="#70CF29" stroke-miterlimit="10"/>
<path d="M15.373 74.6211C22.759 81.0781 32.4181 85.0001 43.0001 85.0001C66.1961 85.0001 85.0001 66.1951 85.0001 43.0001C85.0001 32.4191 81.078 22.759 74.621 15.373" stroke="#3FA9F5" stroke-miterlimit="10"/>
<path d="M35 47H33V55H35V47Z" fill="#3FA9F5"/>
<path d="M41 44H39V55H41V44Z" fill="#3FA9F5"/>
<path d="M47 41H45V55H47V41Z" fill="#3FA9F5"/>
<path d="M53 38H51V55H53V38Z" fill="#3FA9F5"/>
</svg>
