<svg width="86" height="86" viewBox="0 0 86 86" fill="none" xmlns="http://www.w3.org/2000/svg">
<path d="M70.36 11.148C63.01 4.82801 53.455 1 43 1C19.803 1 1 19.805 1 43C1 53.455 4.82801 63.01 11.148 70.36" stroke="#70CF29" stroke-miterlimit="10"/>
<path d="M15.373 74.6211C22.759 81.0781 32.4181 85.0001 43.0001 85.0001C66.1961 85.0001 85.0001 66.1951 85.0001 43.0001C85.0001 32.4191 81.078 22.759 74.621 15.373" stroke="#3FA9F5" stroke-miterlimit="10"/>
<path d="M39.8771 39.0749C44.9861 39.0749 49.1431 34.9189 49.1431 29.8099C49.1431 24.7009 44.9871 20.5459 39.8771 20.5459C34.7671 20.5459 30.6111 24.7009 30.6111 29.8099C30.6111 34.9189 34.7681 39.0749 39.8771 39.0749ZM39.8771 22.5469C43.8831 22.5469 47.1431 25.8059 47.1431 29.8109C47.1431 33.8169 43.8831 37.0759 39.8771 37.0759C35.8711 37.0759 32.6111 33.8169 32.6111 29.8109C32.6111 25.8059 35.8711 22.5469 39.8771 22.5469Z" fill="#3FA9F5"/>
<path d="M43 57.9998H26.032C26.514 50.5698 32.34 44.8867 39.689 44.8867C42.406 44.8867 44.585 45.4258 46.545 46.5818L47.561 44.8588C45.28 43.5128 42.779 42.8857 39.689 42.8857C30.891 42.8857 24 49.9637 24 58.9987V59.9987H43V57.9998Z" fill="#3FA9F5"/>
<path d="M67.7289 66.018L61.9479 58.95C62.6139 57.784 62.9999 56.437 62.9999 55.001C62.9999 50.59 59.4109 47.001 54.9999 47.001C50.5889 47.001 46.9999 50.59 46.9999 55.001C46.9999 56.438 47.3859 57.784 48.0519 58.95L42.2709 66.018C42.0249 66.319 41.9759 66.736 42.1449 67.085C42.3139 67.434 42.6399 67.653 43.0599 67.65L46.9789 67.593L48.3719 71.228C48.5119 71.594 48.8529 71.844 49.2439 71.869C49.2649 71.87 49.2849 71.871 49.3059 71.871C49.6739 71.871 50.0149 71.668 50.1889 71.341L54.6339 62.982C54.7559 62.988 54.8769 63.001 55.0009 63.001C55.1249 63.001 55.2459 62.988 55.3679 62.982L59.8129 71.341C59.9869 71.668 60.3279 71.871 60.6959 71.871C60.7169 71.871 60.7369 71.87 60.7579 71.869C61.1489 71.845 61.4899 71.595 61.6299 71.228L63.0229 67.593L66.9419 67.65C67.3659 67.658 67.6879 67.434 67.8569 67.085C68.0259 66.736 67.9759 66.318 67.7289 66.018ZM49.4529 68.463L48.5959 66.227C48.4459 65.834 48.1119 65.564 47.6479 65.584L45.1799 65.619L49.2909 60.594C50.1899 61.512 51.3089 62.215 52.5619 62.617L49.4529 68.463ZM48.9999 55C48.9999 51.691 51.6909 49 54.9999 49C58.3089 49 60.9999 51.691 60.9999 55C60.9999 58.309 58.3089 61 54.9999 61C51.6909 61 48.9999 58.309 48.9999 55ZM62.3529 65.584C61.9439 65.569 61.5549 65.834 61.4049 66.227L60.5479 68.463L57.4399 62.617C58.6929 62.215 59.8109 61.512 60.7109 60.594L64.8219 65.619L62.3529 65.584Z" fill="#3FA9F5"/>
</svg>
